<svg width="14" height="14" viewBox="0 0 14 14" fill="none" xmlns="http://www.w3.org/2000/svg">
<path d="M0.569754 0H5.62803C5.77901 0.000337471 5.92369 0.0611536 6.03028 0.16909C6.08343 0.222274 6.12568 0.285508 6.15462 0.355178C6.18355 0.424849 6.19861 0.499592 6.19893 0.575138V5.6582C6.19893 5.81074 6.1389 5.95703 6.03205 6.06489C5.9252 6.17275 5.78028 6.23334 5.62917 6.23334H0.569754C0.494612 6.23348 0.420185 6.21861 0.350759 6.18959C0.281333 6.16057 0.218279 6.11797 0.165229 6.06425L0.154973 6.0516C0.0556443 5.94513 0.000228691 5.80446 0 5.6582L0 0.575138C0 0.422602 0.0600275 0.276313 0.166877 0.168454C0.273727 0.0605947 0.418646 0 0.569754 0ZM8.37425 7.76781H13.4302C13.5809 7.76931 13.725 7.83038 13.8315 7.93792C13.938 8.04545 13.9985 8.19087 14 8.34295V13.4237C14 13.5762 13.94 13.7225 13.8331 13.8304C13.7263 13.9383 13.5814 13.9988 13.4302 13.9988H8.37425C8.2255 13.9985 8.08277 13.9395 7.97656 13.8344L7.9663 13.8217C7.865 13.7154 7.8086 13.5735 7.80905 13.426V8.34525C7.80892 8.26939 7.82365 8.19426 7.8524 8.12418C7.88114 8.0541 7.92334 7.99045 7.97656 7.9369L7.98795 7.9254C8.09365 7.82374 8.23396 7.76692 8.37994 7.76666L8.37425 7.76781ZM0.569754 7.76781H5.62803C5.77901 7.76815 5.92369 7.82896 6.03028 7.9369C6.08387 7.98999 6.1264 8.05336 6.15537 8.12329C6.18433 8.19322 6.19914 8.2683 6.19893 8.3441V13.4249C6.19893 13.5774 6.1389 13.7237 6.03205 13.8315C5.9252 13.9394 5.78028 14 5.62917 14H0.569754C0.494612 14.0001 0.420185 13.9853 0.350759 13.9562C0.281333 13.9272 0.218279 13.8846 0.165229 13.8309L0.154973 13.8183C0.0559131 13.7121 0.000517845 13.5719 0 13.426L0 8.34525C0 8.19271 0.0600275 8.04642 0.166877 7.93856C0.273727 7.8307 0.418646 7.77011 0.569754 7.77011V7.76781ZM8.37425 0H13.4302C13.5814 0 13.7263 0.0605947 13.8331 0.168454C13.94 0.276313 14 0.422602 14 0.575138V5.6582C14 5.81074 13.94 5.95703 13.8331 6.06489C13.7263 6.17275 13.5814 6.23334 13.4302 6.23334H8.37425C8.22314 6.23334 8.07822 6.17275 7.97137 6.06489C7.86452 5.95703 7.80449 5.81074 7.80449 5.6582V0.575138C7.80525 0.49935 7.82085 0.424462 7.85038 0.354778C7.87991 0.285094 7.92279 0.221989 7.97656 0.16909L7.98795 0.158738C8.09221 0.0584425 8.23024 0.00172626 8.37425 0Z" fill="#F8F8F8"/>
</svg>
