<svg width="13" height="14" viewBox="0 0 13 14" fill="none" xmlns="http://www.w3.org/2000/svg">
<path d="M6.5 0C4.22244 0 2.36364 1.76157 2.36364 3.92V5.04H1.18182C0.528864 5.04 0 5.5412 0 6.16V12.88C0 13.4988 0.528864 14 1.18182 14H11.8182C12.4711 14 13 13.4988 13 12.88V6.16C13 5.5412 12.4711 5.04 11.8182 5.04H10.6364V3.92C10.6364 1.83209 8.88525 0.150397 6.71005 0.0404687C6.64322 0.0149579 6.57203 0.00124273 6.5 0ZM6.5 1.12C8.13898 1.12 9.45455 2.36675 9.45455 3.92V5.04H3.54545V3.92C3.54545 2.36675 4.86102 1.12 6.5 1.12Z" fill="#F8F8F8"/>
</svg>
