<svg width="23" height="28" viewBox="0 0 23 28" fill="none" xmlns="http://www.w3.org/2000/svg">
<g clip-path="url(#clip0_329_2656)">
<path fill-rule="evenodd" clip-rule="evenodd" d="M0.3 11H22.7C22.8657 11 23 11.1343 23 11.3V23.7C23 23.8657 22.8657 24 22.7 24H18.3C18.1343 24 18 24.1343 18 24.3V27.7C18 27.8657 17.8657 28 17.7 28H13.8C13.6343 28 13.5 27.8657 13.5 27.7V24.3C13.5 24.1343 13.3657 24 13.2 24H9.8C9.63431 24 9.5 24.1343 9.5 24.3V27.7C9.5 27.8657 9.36569 28 9.2 28H4.8C4.63432 28 4.5 27.8657 4.5 27.7V24.3C4.5 24.1343 4.36569 24 4.2 24H0.3C0.134315 24 0 23.8657 0 23.7V11.3C0 11.1343 0.134315 11 0.3 11ZM5 19.2V15.8C5 15.6343 5.13431 15.5 5.3 15.5H17.7C17.8657 15.5 18 15.6343 18 15.8V19.2C18 19.3657 17.8657 19.5 17.7 19.5H5.3C5.13432 19.5 5 19.3657 5 19.2Z" fill="url(#paint0_linear_329_2656)"/>
<path d="M5 8.2V5.3C5 5.13431 5.13431 5 5.3 5H22.7C22.8657 5 23 4.86568 23 4.7V0.3C23 0.134315 22.8657 0 22.7 0H0.3C0.134315 0 0 0.134315 0 0.3V8.2C0 8.36569 0.134315 8.5 0.3 8.5H4.7C4.86569 8.5 5 8.36569 5 8.2Z" fill="#389FFB"/>
</g>
<defs>
<linearGradient id="paint0_linear_329_2656" x1="11.5" y1="7.5" x2="11.5" y2="28" gradientUnits="userSpaceOnUse">
<stop stop-color="#389FFB"/>
<stop offset="1" stop-color="#FBD038"/>
</linearGradient>
<clipPath id="clip0_329_2656">
<rect width="23" height="28" fill="white"/>
</clipPath>
</defs>
</svg>
