<svg width="22" height="22" viewBox="0 0 22 22" fill="none" xmlns="http://www.w3.org/2000/svg">
<circle cx="11" cy="11" r="11" fill="#1E1E1E"/>
<path d="M11 0C4.92303 0 0 4.92374 0 11C0 17.0763 4.92374 22 11 22C17.077 22 22 17.0763 22 11C22 4.92374 17.0763 0 11 0ZM16.4028 7.53606L14.5974 16.0437C14.4639 16.6469 14.1048 16.7931 13.6038 16.5092L10.8538 14.4824L9.52742 15.7598C9.38123 15.906 9.25703 16.0302 8.97316 16.0302L9.16832 13.2312L14.2645 8.62684C14.4866 8.43168 14.2155 8.32097 13.9225 8.51613L7.62406 12.4811L4.90955 11.6337C4.31981 11.4478 4.30632 11.044 5.03374 10.7601L15.6392 6.67026C16.1317 6.49284 16.5617 6.79019 16.4021 7.53535L16.4028 7.53606Z" fill="#F8F8F8"/>
</svg>
