<svg width="25" height="20" viewBox="0 0 25 20" fill="none" xmlns="http://www.w3.org/2000/svg">
<path d="M24.3022 3.4375C24.0711 2.06299 22.9699 1.06201 21.692 0.749512C19.7798 0.3125 16.2407 0 12.4116 0C8.58483 0 4.98912 0.3125 3.07459 0.749512C1.79899 1.06201 0.695577 1.99951 0.464473 3.4375C0.231104 5 0 7.1875 0 10C0 12.8125 0.231104 15 0.521117 16.5625C0.754486 17.937 1.85563 18.938 3.13123 19.2505C5.16132 19.6875 8.64147 20 12.4705 20C16.2996 20 19.7798 19.6875 21.8099 19.2505C23.0855 18.938 24.1866 18.0005 24.42 16.5625C24.6511 15 24.9411 12.749 25 10C24.8822 7.1875 24.5922 5 24.3022 3.4375ZM9.28041 14.375V5.625L16.3563 10L9.28041 14.375Z" fill="#F8F8F8"/>
</svg>
